<svg fill="#fff" version="1.1" id="Layer_1" xmlns="http://www.w3.org/2000/svg" viewBox="0 0 32 32" xml:space="preserve"><path id="chip--debit_1_" d="M28 30.426H4A2.429 2.429 0 0 1 1.575 28V4A2.428 2.428 0 0 1 4 1.575h24A2.429 2.429 0 0 1 30.426 4v24A2.43 2.43 0 0 1 28 30.426zm-11.575-.852H28c.868 0 1.574-.706 1.574-1.574v-2.574H25a.425.425 0 0 1-.301-.125l-3.875-3.875h-4.399v8.148zm-14-4.148V28c0 .868.707 1.574 1.575 1.574h11.575v-8.148h-4.398l-3.875 3.875a.425.425 0 0 1-.301.125H2.425zm22.751-.852h4.398v-8.149h-8.148v4.399l3.75 3.75zm-22.751 0h4.398l3.751-3.75v-4.399H2.425v8.149zm9-4h9.149v-9.149h-9.149v9.149zm10.001-4.999h8.148v-8.15h-4.398l-3.75 3.751v4.399zm-19.001 0h8.149v-4.398l-3.75-3.752H2.425v8.15zm14-5h4.399L24.699 6.7A.425.425 0 0 1 25 6.575h4.574V4c0-.868-.706-1.575-1.574-1.575H16.425v8.15zm-5.249 0h4.398v-8.15H4c-.868 0-1.575.707-1.575 1.575v2.575H7c.113 0 .221.044.301.125l3.875 3.875z"/><path id="_Transparent_Rectangle" style="fill:none" d="M0 0h32v32H0z"/></svg>